<svg width="20" height="20" viewBox="0 0 20 20" fill="none" xmlns="http://www.w3.org/2000/svg">
<path d="M9.98209 0C12.7794 0 15.1488 0.97 17.0888 2.91067C19.0294 4.84 20.0001 7.20267 20.0001 10C20.0001 12.798 19.0468 15.1427 17.1421 17.0353C15.1308 19.012 12.7434 20 9.98209 20C7.27942 20 4.93476 19.018 2.94676 17.0533C0.982758 15.0893 9.15527e-05 12.7387 9.15527e-05 10C9.15527e-05 7.27467 0.982758 4.91133 2.94676 2.91133C4.88676 0.97 7.23209 0 9.98209 0ZM10.0181 1.804C7.74476 1.804 5.82142 2.60733 4.25009 4.21467C2.61876 5.87 1.80342 7.798 1.80342 10C1.80342 12.2267 2.61276 14.1427 4.23143 15.75C5.85076 17.37 7.77943 18.1787 10.0174 18.1787C12.2434 18.1787 14.1841 17.3633 15.8388 15.732C17.4108 14.2087 18.1961 12.2987 18.1961 10C18.1961 7.71467 17.3981 5.786 15.8034 4.21467C14.2201 2.60667 12.2914 1.804 10.0181 1.804ZM13.7861 7.64267V9.35667H6.51809V7.64267H13.7861ZM13.7861 10.8573V12.5707H6.51809V10.8573H13.7861Z" fill="#98A2B3"/>
</svg>
