<svg width="20" height="20" viewBox="0 0 20 20" fill="none" xmlns="http://www.w3.org/2000/svg">
<path d="M9.98209 0C12.7908 0 15.1608 0.964 17.0888 2.89333C19.0294 4.83333 20.0001 7.202 20.0001 10C20.0001 12.81 19.0468 15.1487 17.1421 17.0173C15.1188 19.0067 12.7321 20 9.98209 20C7.27942 20 4.93476 19.0173 2.94676 17.0533C0.982758 15.0887 9.15527e-05 12.738 9.15527e-05 10C9.15527e-05 7.262 0.982758 4.89333 2.94676 2.89333C4.87542 0.964 7.22009 0 9.98209 0ZM10.0181 1.804C7.74476 1.804 5.82142 2.60133 4.25009 4.19667C2.61876 5.86333 1.80342 7.798 1.80342 10.0007C1.80342 12.2147 2.61276 14.1313 4.23143 15.75C5.85076 17.3693 7.77943 18.178 10.0174 18.178C12.2434 18.178 14.1841 17.3633 15.8388 15.7313C17.4108 14.22 18.1961 12.3093 18.1961 9.99933C18.1961 7.726 17.3981 5.792 15.8034 4.196C14.2088 2.60133 12.2801 1.804 10.0181 1.804ZM12.6968 7.51733V11.6067H11.5534V16.464H8.44676V11.6067H7.30409V7.51733C7.30248 7.43271 7.31821 7.34866 7.35031 7.27035C7.38242 7.19204 7.43021 7.12114 7.49076 7.062C7.54999 7.00135 7.62099 6.95344 7.69941 6.92123C7.77782 6.88901 7.862 6.87317 7.94676 6.87467H12.0541C12.2208 6.87467 12.3701 6.93667 12.5008 7.06133C12.5637 7.11928 12.6136 7.18985 12.6474 7.26842C12.6812 7.347 12.698 7.43182 12.6968 7.51733ZM8.60676 4.94667C8.60676 4.00667 9.07076 3.536 10.0001 3.536C10.9294 3.536 11.3934 4.006 11.3934 4.94667C11.3934 5.87533 10.9288 6.34 10.0001 6.34C9.07143 6.34 8.60676 5.87533 8.60676 4.94667Z" fill="#98A2B3"/>
</svg>
