<svg width="20" height="20" viewBox="0 0 20 20" fill="none" xmlns="http://www.w3.org/2000/svg">
<path d="M9.98142 0C12.7788 0 15.1608 0.976667 17.1248 2.92867C18.0498 3.84686 18.7785 4.94351 19.2668 6.152C19.7554 7.36 20.0001 8.64267 20.0001 10C20.0001 11.3693 19.7581 12.652 19.2768 13.848C18.7958 15.0424 18.0689 16.1222 17.1434 17.0173C16.1915 17.9656 15.0629 18.718 13.8214 19.232C12.6051 19.7396 11.3001 20.0007 9.98209 20C8.66076 20 7.39542 19.7467 6.18742 19.24C4.97053 18.7286 3.8662 17.9826 2.93742 17.0447C1.97942 16.0867 1.25009 15.006 0.750089 13.8033C0.249507 12.5981 -0.00547395 11.3051 8.91037e-05 10C8.91037e-05 8.67867 0.253422 7.408 0.758756 6.18733C1.26969 4.95988 2.0193 3.84612 2.96409 2.91067C4.86876 0.970667 7.20809 0 9.98142 0ZM10.0181 1.804C7.73209 1.804 5.80942 2.60133 4.25009 4.19667C3.48069 4.96935 2.86531 5.88133 2.43676 6.884C2.0159 7.86901 1.8004 8.92952 1.80342 10.0007C1.80342 11.072 2.01409 12.1047 2.43676 13.098C2.86132 14.0952 3.4774 14.9994 4.25009 15.7593C5.01138 16.5229 5.91512 17.1297 6.91009 17.5453C7.89876 17.956 8.93476 18.1613 10.0181 18.1613C11.0894 18.1613 12.1274 17.9533 13.1348 17.5367C14.1487 17.1142 15.0728 16.5021 15.8574 15.7333C17.4168 14.2093 18.1961 12.2987 18.1961 10C18.1961 8.89333 17.9934 7.846 17.5894 6.858C17.1832 5.86746 16.5822 4.96858 15.8221 4.21467C14.2141 2.608 12.2794 1.804 10.0181 1.804ZM9.89275 8.33933L8.55276 9.036C8.40942 8.73933 8.23475 8.53067 8.02609 8.41133C7.81809 8.29267 7.62475 8.23267 7.44609 8.23267C6.55275 8.23267 6.10609 8.822 6.10609 10.0007C6.10609 10.536 6.21942 10.9647 6.44542 11.286C6.67209 11.6073 7.00542 11.7687 7.44542 11.7687C8.02942 11.7687 8.44009 11.482 8.67875 10.9113L9.91009 11.536C9.65941 12.0126 9.28257 12.4111 8.82076 12.688C8.35676 12.968 7.84476 13.108 7.28542 13.108C6.39209 13.108 5.67209 12.8347 5.12409 12.286C4.57676 11.7393 4.30276 10.9767 4.30276 10.0007C4.30276 9.04867 4.58009 8.29267 5.13342 7.73333C5.68676 7.17333 6.38609 6.89333 7.23142 6.89333C8.47009 6.89333 9.35676 7.37533 9.89275 8.34V8.33933ZM15.6608 8.33933L14.3388 9.036C14.1961 8.73933 14.0201 8.53067 13.8121 8.41133C13.6034 8.29267 13.4034 8.23267 13.2141 8.23267C12.3208 8.23267 11.8741 8.822 11.8741 10.0007C11.8741 10.536 11.9874 10.9647 12.2141 11.286C12.4394 11.6073 12.7728 11.7687 13.2141 11.7687C13.7968 11.7687 14.2074 11.482 14.4454 10.9113L15.6954 11.536C15.4346 12.0109 15.0528 12.4084 14.5888 12.688C14.1248 12.968 13.6188 13.108 13.0708 13.108C12.1661 13.108 11.4434 12.8347 10.9021 12.286C10.3594 11.7393 10.0888 10.9767 10.0888 10.0007C10.0888 9.04867 10.3654 8.29267 10.9194 7.73333C11.4728 7.17333 12.1721 6.89333 13.0174 6.89333C14.2554 6.89333 15.1374 7.37533 15.6608 8.34V8.33933Z" fill="#98A2B3"/>
</svg>
