<svg width="24.000000" height="24.000000" viewBox="0 0 24 24" fill="none" xmlns="http://www.w3.org/2000/svg" xmlns:xlink="http://www.w3.org/1999/xlink">
	<desc>
			Created with Pixso.
	</desc>
	<defs/>
	<path id="Path" d="M21 5C21.0002 4.46973 20.7896 3.96106 20.4148 3.586C20.0398 3.21094 19.5315 3.00012 19.0012 3L19 3" stroke="#98A2B3" stroke-opacity="1.000000" stroke-width="1.500000" stroke-linejoin="round" stroke-linecap="round"/>
	<path id="Path" d="M21 12L21 13" stroke="#98A2B3" stroke-opacity="1.000000" stroke-width="1.500000" stroke-linejoin="round" stroke-linecap="round"/>
	<path id="Path" d="M21 8L21 9" stroke="#98A2B3" stroke-opacity="1.000000" stroke-width="1.500000" stroke-linejoin="round" stroke-linecap="round"/>
	<path id="Path" d="M21 16C21.0002 16.5303 20.7896 17.0389 20.4148 17.414C20.0398 17.7891 19.5315 17.9999 19.0012 18L19 18" stroke="#98A2B3" stroke-opacity="1.000000" stroke-width="1.500000" stroke-linejoin="round" stroke-linecap="round"/>
	<path id="Path" d="M15 3L16 3" stroke="#98A2B3" stroke-opacity="1.000000" stroke-width="1.500000" stroke-linejoin="round" stroke-linecap="round"/>
	<path id="Path" d="M11 3L12 3" stroke="#98A2B3" stroke-opacity="1.000000" stroke-width="1.500000" stroke-linejoin="round" stroke-linecap="round"/>
	<path id="Path" d="M6 5C5.99976 4.46973 6.21045 3.96106 6.58521 3.586C6.96021 3.21094 7.46851 3.00012 7.99878 3L8 3" stroke="#98A2B3" stroke-opacity="1.000000" stroke-width="1.500000" stroke-linejoin="round" stroke-linecap="round"/>
	<rect id="Rectangle" x="3.000000" y="8.000000" rx="2.000000" width="13.000000" height="13.000000" stroke="#98A2B3" stroke-opacity="1.000000" stroke-width="1.500000" stroke-linejoin="round"/>
	<path id="Path" d="M6.5 11.5L9 11.5" stroke="#98A2B3" stroke-opacity="1.000000" stroke-width="1.500000" stroke-linejoin="round" stroke-linecap="round"/>
	<path id="Path" d="M6.5 14.5L12.5 14.5" stroke="#98A2B3" stroke-opacity="1.000000" stroke-width="1.500000" stroke-linejoin="round" stroke-linecap="round"/>
	<path id="Path" d="M6.5 17.5L12.5 17.5" stroke="#98A2B3" stroke-opacity="1.000000" stroke-width="1.500000" stroke-linejoin="round" stroke-linecap="round"/>
</svg>
